<svg width="100" height="100" viewBox="0 0 100 100" fill="none" xmlns="http://www.w3.org/2000/svg">
<path d="M67.125 45.75C69.1042 45.75 70.7865 45.0573 72.1719 43.6719C73.5573 42.2865 74.25 40.6042 74.25 38.625C74.25 36.6458 73.5573 34.9635 72.1719 33.5781C70.7865 32.1927 69.1042 31.5 67.125 31.5C65.1458 31.5 63.4635 32.1927 62.0781 33.5781C60.6927 34.9635 60 36.6458 60 38.625C60 40.6042 60.6927 42.2865 62.0781 43.6719C63.4635 45.0573 65.1458 45.75 67.125 45.75ZM33.875 45.75C35.8542 45.75 37.5365 45.0573 38.9219 43.6719C40.3073 42.2865 41 40.6042 41 38.625C41 36.6458 40.3073 34.9635 38.9219 33.5781C37.5365 32.1927 35.8542 31.5 33.875 31.5C31.8958 31.5 30.2135 32.1927 28.8281 33.5781C27.4427 34.9635 26.75 36.6458 26.75 38.625C26.75 40.6042 27.4427 42.2865 28.8281 43.6719C30.2135 45.0573 31.8958 45.75 33.875 45.75ZM50.5 76.625C55.8833 76.625 60.7719 75.101 65.1656 72.0531C69.5594 69.0052 72.7458 64.9875 74.725 60H26.275C28.2542 64.9875 31.4406 69.0052 35.8344 72.0531C40.2281 75.101 45.1167 76.625 50.5 76.625ZM50.5 98C43.9292 98 37.7542 96.7531 31.975 94.2594C26.1958 91.7656 21.1688 88.3813 16.8938 84.1063C12.6187 79.8313 9.23438 74.8042 6.74063 69.025C4.24688 63.2458 3 57.0708 3 50.5C3 43.9292 4.24688 37.7542 6.74063 31.975C9.23438 26.1958 12.6187 21.1688 16.8938 16.8938C21.1688 12.6187 26.1958 9.23438 31.975 6.74063C37.7542 4.24688 43.9292 3 50.5 3C57.0708 3 63.2458 4.24688 69.025 6.74063C74.8042 9.23438 79.8313 12.6187 84.1063 16.8938C88.3813 21.1688 91.7656 26.1958 94.2594 31.975C96.7531 37.7542 98 43.9292 98 50.5C98 57.0708 96.7531 63.2458 94.2594 69.025C91.7656 74.8042 88.3813 79.8313 84.1063 84.1063C79.8313 88.3813 74.8042 91.7656 69.025 94.2594C63.2458 96.7531 57.0708 98 50.5 98Z" fill="#242424"/>
</svg>
