<svg width="100" height="100" viewBox="0 0 100 100" fill="none" xmlns="http://www.w3.org/2000/svg">
<path fill-rule="evenodd" clip-rule="evenodd" d="M20.1508 76.4123V96.714H63.3414V87.2714H82.5372V63.6646H98.2538L90.5754 33.566C88.2559 24.2807 83.237 16.7462 75.5187 10.9626C67.8004 5.17893 58.9423 2.28711 48.9445 2.28711C36.9471 2.28711 26.7493 6.41829 18.3512 14.6806C9.95299 22.943 5.75391 32.9759 5.75391 44.7792C5.75391 50.8383 7.01363 56.6023 9.53308 62.0712C12.0525 67.5401 15.5918 72.3204 20.1508 76.4123ZM55.6526 70.9163H42.585L41.605 62.749C40.7338 62.4224 39.9443 62.0412 39.2365 61.6056C38.5286 61.17 37.9025 60.68 37.358 60.1355L29.8441 63.4024L23.3103 52.295L29.8441 47.3946C29.6263 46.5235 29.5174 45.6523 29.5174 44.7811C29.5174 43.9099 29.6263 43.0388 29.8441 42.1676L23.3103 37.2673L29.8441 26.1598L37.358 29.4267C37.9025 28.8822 38.5286 28.3922 39.2365 27.9566C39.9443 27.521 40.7338 27.1399 41.605 26.8132L42.585 18.646H55.6526L56.6327 26.8132C57.5039 27.1399 58.2934 27.521 59.0012 27.9566C59.709 28.3922 60.3352 28.8822 60.8796 29.4267L68.3935 26.1598L74.9273 37.2673L68.3935 42.1676C68.6113 43.0388 68.7202 43.9099 68.7202 44.7811C68.7202 45.6523 68.6113 46.5235 68.3935 47.3946L74.9273 52.295L68.3935 63.4024L60.8796 60.1355C60.3352 60.68 59.709 61.17 59.0012 61.6056C58.2934 62.0412 57.5039 62.4224 56.6327 62.749L55.6526 70.9163ZM42.1709 51.7235C44.0766 53.6292 46.3906 54.582 49.113 54.582C51.8354 54.582 54.1495 53.6292 56.0552 51.7235C57.9609 49.8178 58.9137 47.5038 58.9137 44.7813C58.9137 42.0589 57.9609 39.7449 56.0552 37.8392C54.1495 35.9335 51.8354 34.9807 49.113 34.9807C46.3906 34.9807 44.0766 35.9335 42.1709 37.8392C40.2652 39.7449 39.3123 42.0589 39.3123 44.7813C39.3123 47.5038 40.2652 49.8178 42.1709 51.7235Z" fill="#242424"/>
</svg>
