<svg width="100" height="100" viewBox="0 0 100 100" fill="none" xmlns="http://www.w3.org/2000/svg">
<path d="M83.6 92C80.48 92 77.68 91.125 75.2 89.375C72.72 87.625 71 85.3889 70.04 82.6667H45.2C39.92 82.6667 35.4 80.8389 31.64 77.1833C27.88 73.5278 26 69.1333 26 64C26 58.8667 27.88 54.4722 31.64 50.8167C35.4 47.1611 39.92 45.3333 45.2 45.3333H54.8C57.44 45.3333 59.7 44.4194 61.58 42.5917C63.46 40.7639 64.4 38.5667 64.4 36C64.4 33.4333 63.46 31.2361 61.58 29.4083C59.7 27.5806 57.44 26.6667 54.8 26.6667H29.96C28.92 29.3889 27.18 31.625 24.74 33.375C22.3 35.125 19.52 36 16.4 36C12.4 36 9 34.6389 6.2 31.9167C3.4 29.1944 2 25.8889 2 22C2 18.1111 3.4 14.8056 6.2 12.0833C9 9.36111 12.4 8 16.4 8C19.52 8 22.3 8.875 24.74 10.625C27.18 12.375 28.92 14.6111 29.96 17.3333H54.8C60.08 17.3333 64.6 19.1611 68.36 22.8167C72.12 26.4722 74 30.8667 74 36C74 41.1333 72.12 45.5278 68.36 49.1833C64.6 52.8389 60.08 54.6667 54.8 54.6667H45.2C42.56 54.6667 40.3 55.5806 38.42 57.4083C36.54 59.2361 35.6 61.4333 35.6 64C35.6 66.5667 36.54 68.7639 38.42 70.5917C40.3 72.4194 42.56 73.3333 45.2 73.3333H70.04C71.08 70.6111 72.82 68.375 75.26 66.625C77.7 64.875 80.48 64 83.6 64C87.6 64 91 65.3611 93.8 68.0833C96.6 70.8056 98 74.1111 98 78C98 81.8889 96.6 85.1944 93.8 87.9167C91 90.6389 87.6 92 83.6 92ZM16.4 26.6667C17.76 26.6667 18.9 26.2194 19.82 25.325C20.74 24.4306 21.2 23.3222 21.2 22C21.2 20.6778 20.74 19.5694 19.82 18.675C18.9 17.7806 17.76 17.3333 16.4 17.3333C15.04 17.3333 13.9 17.7806 12.98 18.675C12.06 19.5694 11.6 20.6778 11.6 22C11.6 23.3222 12.06 24.4306 12.98 25.325C13.9 26.2194 15.04 26.6667 16.4 26.6667Z" fill="#242424"/>
</svg>
