<svg width="100" height="100" viewBox="0 0 100 100" fill="none" xmlns="http://www.w3.org/2000/svg">
<path fill-rule="evenodd" clip-rule="evenodd" d="M65.8906 71.07L87.1633 92.6803L93.4999 86.2432L72.2272 64.6328C74.6411 61.4909 76.527 58.0233 77.8848 54.23C79.2426 50.4367 79.9216 46.3943 79.9216 42.1029C79.9216 31.8342 76.4138 23.1364 69.3984 16.0096C62.3829 8.88274 53.821 5.31934 43.7127 5.31934C33.6044 5.31934 25.0426 8.88274 18.0271 16.0096C11.0116 23.1364 7.50391 31.8342 7.50391 42.1029C7.50391 52.3716 11.0116 61.0694 18.0271 68.1962C25.0426 75.3231 33.6044 78.8865 43.7127 78.8865C47.9371 78.8865 51.9163 78.1968 55.6503 76.8174C59.3844 75.438 62.7978 73.5222 65.8906 71.07ZM33.428 46.4998L29.768 62.6501L43.6758 54.0864L57.5836 62.6501L53.9237 46.4998L66.1986 35.6372L49.9822 34.2003L43.6758 18.9696L37.3695 34.2003L21.1531 35.6372L33.428 46.4998Z" fill="#242424"/>
</svg>
