<svg width="100" height="100" viewBox="0 0 100 100" fill="none" xmlns="http://www.w3.org/2000/svg">
<path d="M50 99V90.0476H81.8889V85.5714H63.6667V49.7619H81.8889V45.2857C81.8889 36.6317 78.7759 29.246 72.55 23.1286C66.3241 17.0111 58.8074 13.9524 50 13.9524C41.1926 13.9524 33.6759 17.0111 27.45 23.1286C21.2241 29.246 18.1111 36.6317 18.1111 45.2857V49.7619H36.3333V85.5714H9V45.2857C9 39.7651 10.0819 34.5615 12.2458 29.675C14.4097 24.7885 17.3519 20.5175 21.0722 16.8619C24.7926 13.2063 29.1394 10.3155 34.1125 8.18929C39.0856 6.0631 44.3815 5 50 5C55.6185 5 60.9144 6.0631 65.8875 8.18929C70.8606 10.3155 75.2074 13.2063 78.9278 16.8619C82.6481 20.5175 85.5903 24.7885 87.7542 29.675C89.9181 34.5615 91 39.7651 91 45.2857V99H50Z" fill="#242424"/>
</svg>
