<svg width="54" height="55" viewBox="0 0 54 55" fill="none" xmlns="http://www.w3.org/2000/svg">
<mask id="mask0_6753_4969" style="mask-type:alpha" maskUnits="userSpaceOnUse" x="0" y="0" width="54" height="55">
<rect x="0.0205078" y="0.737061" width="53.9022" height="53.9022" fill="#D9D9D9"/>
</mask>
<g mask="url(#mask0_6753_4969)">
<path d="M2.2666 45.6556V16.4585H6.75845V41.1637H44.9392V45.6556H2.2666ZM11.2503 36.6719V9.72076H51.677V36.6719H11.2503ZM20.234 32.18C20.234 30.9448 19.7942 29.8873 18.9145 29.0077C18.0349 28.128 16.9774 27.6882 15.7422 27.6882V32.18H20.234ZM42.6933 32.18H47.1851V27.6882C45.9499 27.6882 44.8924 28.128 44.0127 29.0077C43.1331 29.8873 42.6933 30.9448 42.6933 32.18ZM31.4636 29.9341C33.3352 29.9341 34.9261 29.279 36.2362 27.9689C37.5464 26.6588 38.2014 25.0679 38.2014 23.1963C38.2014 21.3247 37.5464 19.7339 36.2362 18.4237C34.9261 17.1136 33.3352 16.4585 31.4636 16.4585C29.592 16.4585 28.0012 17.1136 26.691 18.4237C25.3809 19.7339 24.7259 21.3247 24.7259 23.1963C24.7259 25.0679 25.3809 26.6588 26.691 27.9689C28.0012 29.279 29.592 29.9341 31.4636 29.9341ZM15.7422 18.7045C16.9774 18.7045 18.0349 18.2646 18.9145 17.385C19.7942 16.5053 20.234 15.4479 20.234 14.2126H15.7422V18.7045ZM47.1851 18.7045V14.2126H42.6933C42.6933 15.4479 43.1331 16.5053 44.0127 17.385C44.8924 18.2646 45.9499 18.7045 47.1851 18.7045Z" fill="#242424"/>
</g>
</svg>
