<svg width="100" height="100" viewBox="0 0 100 100" fill="none" xmlns="http://www.w3.org/2000/svg">
<path d="M50.5 97C43.9292 97 37.7542 95.7531 31.975 93.2594C26.1958 90.7656 21.1687 87.3813 16.8937 83.1063C12.6187 78.8313 9.23438 73.8042 6.74063 68.025C4.24687 62.2458 3 56.0708 3 49.5C3 42.9292 4.24687 36.7542 6.74063 30.975C9.23438 25.1958 12.6187 20.1687 16.8937 15.8937C21.1687 11.6187 26.1958 8.23438 31.975 5.74063C37.7542 3.24687 43.9292 2 50.5 2C57.0708 2 63.2458 3.24687 69.025 5.74063C74.8042 8.23438 79.8313 11.6187 84.1063 15.8937C88.3813 20.1687 91.7656 25.1958 94.2594 30.975C96.7531 36.7542 98 42.9292 98 49.5C98 56.0708 96.7531 62.2458 94.2594 68.025C91.7656 73.8042 88.3813 78.8313 84.1063 83.1063C79.8313 87.3813 74.8042 90.7656 69.025 93.2594C63.2458 95.7531 57.0708 97 50.5 97ZM50.5 87.5C61.1083 87.5 70.0938 83.8188 77.4563 76.4563C84.8188 69.0938 88.5 60.1083 88.5 49.5C88.5 48.9458 88.4802 48.3719 88.4406 47.7781C88.401 47.1844 88.3813 46.6896 88.3813 46.2937C87.9854 48.5896 86.9167 50.4896 85.175 51.9938C83.4333 53.4979 81.375 54.25 79 54.25H69.5C66.8875 54.25 64.651 53.3198 62.7906 51.4594C60.9302 49.599 60 47.3625 60 44.75V40H41V30.5C41 27.8875 41.9302 25.651 43.7906 23.7906C45.651 21.9302 47.8875 21 50.5 21H55.25C55.25 19.1792 55.7448 17.576 56.7344 16.1906C57.724 14.8052 58.9312 13.6771 60.3562 12.8063C58.7729 12.4104 57.1698 12.0938 55.5469 11.8563C53.924 11.6188 52.2417 11.5 50.5 11.5C39.8917 11.5 30.9063 15.1813 23.5438 22.5438C16.1813 29.9063 12.5 38.8917 12.5 49.5H36.25C41.475 49.5 45.9479 51.3604 49.6687 55.0813C53.3896 58.8021 55.25 63.275 55.25 68.5V73.25H41V86.3125C42.5833 86.7083 44.1469 87.0052 45.6906 87.2031C47.2344 87.401 48.8375 87.5 50.5 87.5Z" fill="#242424"/>
</svg>
