<svg width="100" height="100" viewBox="0 0 100 100" fill="none" xmlns="http://www.w3.org/2000/svg">
<path d="M45 74H25C18.0833 74 12.1875 71.5625 7.3125 66.6875C2.4375 61.8125 0 55.9167 0 49C0 42.0833 2.4375 36.1875 7.3125 31.3125C12.1875 26.4375 18.0833 24 25 24L45 24V34H25C20.8333 34 17.2917 35.4583 14.375 38.375C11.4583 41.2917 10 44.8333 10 49C10 53.1667 11.4583 56.7083 14.375 59.625C17.2917 62.5417 20.8333 64 25 64H45V74ZM30 54V44H70V54H30ZM55 74V64L75 64C79.1667 64 82.7083 62.5417 85.625 59.625C88.5417 56.7083 90 53.1667 90 49C90 44.8333 88.5417 41.2917 85.625 38.375C82.7083 35.4583 79.1667 34 75 34H55V24H75C81.9167 24 87.8125 26.4375 92.6875 31.3125C97.5625 36.1875 100 42.0833 100 49C100 55.9167 97.5625 61.8125 92.6875 66.6875C87.8125 71.5625 81.9167 74 75 74H55Z" fill="#242424"/>
</svg>
