<svg width="100" height="100" viewBox="0 0 100 100" fill="none" xmlns="http://www.w3.org/2000/svg">
<path d="M33.3333 75H39.5833V66.6667H47.9167V60.4167H39.5833V52.0833H33.3333V60.4167H25V66.6667H33.3333V75ZM54.1667 71.875H75V65.625H54.1667V71.875ZM54.1667 61.4583H75V55.2083H54.1667V61.4583ZM58.75 45.625L64.5833 39.7917L70.4167 45.625L74.7917 41.25L68.9583 35.2083L74.7917 29.375L70.4167 25L64.5833 30.8333L58.75 25L54.375 29.375L60.2083 35.2083L54.375 41.25L58.75 45.625ZM26.0417 38.3333H46.875V32.0833H26.0417V38.3333ZM12.5 87.5V12.5H87.5V87.5H12.5Z" fill="#242424"/>
</svg>
